<?xml version="1.0" encoding="utf-8"?>
<!-- Generator: Adobe Illustrator 23.1.0, SVG Export Plug-In . SVG Version: 6.00 Build 0)  -->
<svg version="1.1" id="Layer_1" xmlns="http://www.w3.org/2000/svg" xmlns:xlink="http://www.w3.org/1999/xlink" x="0px" y="0px"
	 viewBox="0 0 612 792" style="enable-background:new 0 0 612 792;" xml:space="preserve">
<style type="text/css">
	.st0{fill:#242424;}
</style>
<g>
	<path class="st0" d="M406.87,233.55H176.11c-5.65,0-10.24-4.58-10.24-10.24v-10.91c0-5.65,4.58-10.24,10.24-10.24h230.76
		c5.65,0,10.24,4.58,10.24,10.24v10.91C417.11,228.97,412.53,233.55,406.87,233.55z"/>
	<path class="st0" d="M406.87,312H176.11c-5.65,0-10.24-4.58-10.24-10.24v-10.91c0-5.65,4.58-10.24,10.24-10.24h230.76
		c5.65,0,10.24,4.58,10.24,10.24v10.91C417.11,307.41,412.53,312,406.87,312z"/>
	<path class="st0" d="M406.87,390.44H176.11c-5.65,0-10.24-4.58-10.24-10.24V369.3c0-5.65,4.58-10.24,10.24-10.24h230.76
		c5.65,0,10.24,4.58,10.24,10.24v10.91C417.11,385.86,412.53,390.44,406.87,390.44z"/>
</g>
</svg>
